<?xml version="1.0" standalone="no"?>
<!DOCTYPE svg PUBLIC "-//W3C//DTD SVG 20010904//EN"
 "http://www.w3.org/TR/2001/REC-SVG-20010904/DTD/svg10.dtd">
<svg version="1.0" xmlns="http://www.w3.org/2000/svg"
 width="700.000000pt" height="700.000000pt" viewBox="0 0 700.000000 700.000000"
 preserveAspectRatio="xMidYMid meet">
<metadata>
Created by potrace 1.11, written by Peter Selinger 2001-2013
</metadata>
<g transform="translate(0.000000,700.000000) scale(0.100000,-0.100000)"
fill="#000000" stroke="none">
<path d="M4038 5785 c-1 -1 -40 -6 -84 -9 -45 -4 -93 -9 -105 -11 -13 -2 -49
-6 -79 -9 -110 -12 -306 -48 -463 -87 -457 -113 -898 -305 -1267 -552 -95 -64
-337 -243 -365 -271 -7 -6 -34 -29 -60 -51 -478 -395 -825 -902 -963 -1406
-42 -151 -55 -250 -56 -409 -1 -358 118 -638 376 -886 77 -74 206 -173 283
-216 156 -89 293 -151 440 -199 96 -31 347 -95 405 -103 19 -3 80 -12 135 -20
55 -9 143 -19 195 -23 184 -15 686 -8 786 11 18 3 88 13 144 20 217 28 568
115 806 202 393 142 691 313 1090 624 217 169 312 256 524 479 32 33 102 118
166 201 210 271 402 667 448 920 36 203 38 219 38 355 0 158 -14 252 -62 420
-17 58 -82 190 -130 262 -53 82 -177 208 -265 271 -343 243 -828 418 -1295
468 -36 3 -78 9 -95 11 -35 5 -541 13 -547 8z m452 -201 c142 -24 209 -44 315
-94 184 -86 302 -212 358 -380 41 -124 38 -388 -8 -635 -23 -128 -25 -135 -52
-240 -141 -551 -444 -1156 -813 -1625 -337 -429 -690 -708 -1057 -834 -57 -19
-103 -34 -103 -31 0 2 -15 -1 -32 -6 -89 -25 -365 -39 -478 -24 -86 11 -120
18 -189 37 -257 70 -457 233 -527 429 -55 155 -67 428 -29 664 18 108 57 280
85 370 17 55 32 108 35 119 28 118 222 556 322 724 24 41 43 75 43 78 0 2 32
54 70 115 195 310 388 551 620 775 198 191 402 337 611 437 79 39 241 94 299
103 19 3 38 8 42 10 3 2 35 7 70 10 34 3 65 8 67 10 9 9 281 -1 351 -12z"/>
</g>
</svg>
