<?xml version="1.0" encoding="utf-8"?>
<!-- Generator: Adobe Illustrator 19.0.0, SVG Export Plug-In . SVG Version: 6.00 Build 0)  -->
<svg version="1.1" id="Layer_1" xmlns="http://www.w3.org/2000/svg" xmlns:xlink="http://www.w3.org/1999/xlink" x="0px" y="0px"
	 viewBox="0 0 549.4 214.6" style="enable-background:new 0 0 549.4 214.6;" xml:space="preserve">
<style type="text/css">
	.st0{fill-rule:evenodd;clip-rule:evenodd;}
	.st1{fill-rule:evenodd;clip-rule:evenodd;fill:#F15F27;}
</style>
<g>
	<g>
		<path d="M2,190.8c0-0.4-0.2-0.7-0.7-0.7H0v-3.4h3.9c1.5,0,2.1,0.6,2.1,2.1v7.1h9.5v-7.1c0-1.4,0.6-2.1,2.1-2.1h3.9v3.4h-1.3
			c-0.4,0-0.7,0.2-0.7,0.7v17.5h-4v-9H5.9v9H2V190.8z"/>
		<path d="M38.3,198.6h0.5v-0.1c0-2.2-0.9-3-2.9-3c-0.7,0-2.1,0.2-2.1,1v0.8h-3.6v-1.6c0-2.9,4.1-3.2,5.7-3.2c5.2,0,6.7,2.7,6.7,6.2
			v5.8c0,0.4,0.2,0.7,0.7,0.7h1.2v3.2h-3.5c-1.4,0-2-0.8-2-1.7c0-0.4,0-0.7,0-0.7h-0.1c0,0-1.2,2.7-4.7,2.7c-2.8,0-5.3-1.7-5.3-4.8
			C29.2,199,35.8,198.6,38.3,198.6z M35.4,205.6c2.1,0,3.5-2.2,3.5-4.1v-0.4h-0.7c-2,0-5.2,0.3-5.2,2.4
			C33,204.7,33.8,205.6,35.4,205.6z"/>
		<path d="M53.8,196.8c0-0.5-0.2-0.7-0.7-0.7h-1.2v-3.3h3.7c1.4,0,2,0.6,2,2.1v9.5c0,0.4,0.2,0.7,0.7,0.7h1.2v3.2h-3.7
			c-1.4,0-2-0.6-2-2.1V196.8z M54,186.7h3.3v3.5H54V186.7z"/>
		<path d="M68.8,196.8c0-0.5-0.2-0.7-0.7-0.7h-1.2v-3.3h3.5c1.4,0,2.1,0.6,2.1,1.9v0.9c0,0.6-0.1,1-0.1,1h0.1c0.7-2.2,2.5-4,4.9-4
			c0.3,0,0.7,0.1,0.7,0.1v3.8c0,0-0.4-0.1-0.9-0.1c-1.6,0-3.5,0.9-4.2,3.2c-0.2,0.8-0.3,1.6-0.3,2.5v6.1h-3.8V196.8z"/>
		<path d="M99.3,204.9h0.5c0.5,0,0.8-0.1,0.9-0.7l6.4-17.5h4.2l6.4,17.5c0.2,0.5,0.4,0.7,0.9,0.7h0.5v3.4h-2.4
			c-1.5,0-2.1-0.4-2.5-1.8l-1.3-3.8h-7.3l-1.3,3.8c-0.5,1.4-1,1.8-2.5,1.8h-2.4V204.9z M111.9,199.5l-1.8-5.4
			c-0.4-1.2-0.9-3.2-0.9-3.2h-0.1c0,0-0.5,2-0.8,3.2l-1.9,5.4H111.9z"/>
		<path d="M127.9,196.8c0-0.5-0.2-0.7-0.7-0.7h-1.2v-3.3h3.5c1.4,0,2,0.6,2,1.7v0.5c0,0.3-0.1,0.7-0.1,0.7h0.1
			c0.7-1.3,2.3-3.2,5.5-3.2c3.4,0,5.4,1.8,5.4,5.9v6c0,0.4,0.2,0.7,0.7,0.7h1.2v3.2h-3.7c-1.5,0-2.1-0.6-2.1-2.1v-7.1
			c0-1.9-0.5-3.2-2.4-3.2c-2.1,0-3.6,1.3-4.2,3.2c-0.2,0.6-0.3,1.3-0.3,2.1v7.1h-3.8V196.8z"/>
		<path d="M159,192.4c3.4,0,4.5,1.9,4.5,1.9h0.1c0,0,0-0.4,0-0.9v-2.7c0-0.5-0.2-0.7-0.7-0.7h-1.2v-3.3h3.7c1.4,0,2.1,0.6,2.1,2.1
			v15.6c0,0.4,0.2,0.7,0.7,0.7h1.2v3.2h-3.5c-1.4,0-1.9-0.7-1.9-1.6c0-0.3,0-0.6,0-0.6h-0.1c0,0-1.3,2.5-4.8,2.5
			c-4.2,0-6.9-3.3-6.9-8.1C151.9,195.6,154.9,192.4,159,192.4z M163.6,200.5c0-2.4-1.2-4.8-3.8-4.8c-2.1,0-3.9,1.7-3.9,4.8
			c0,2.9,1.5,4.9,3.8,4.9C161.7,205.4,163.6,203.9,163.6,200.5z"/>
		<path d="M192.9,190.1h-2v-3.4h9.3c3.9,0,6.7,2,6.7,5.5c0,2.4-1.3,3.9-2.6,4.6v0.1c2.3,0.7,3.5,2.9,3.5,5.1c0,4.3-3.4,6.2-7.4,6.2
			H195c-1.4,0-2.1-0.6-2.1-2.1V190.1z M200.3,195.5c1.7,0,2.6-1.2,2.6-2.8c0-1.5-0.9-2.7-2.7-2.7h-3.3v5.4H200.3z M197.6,204.9h3.1
			c1.9,0,3-1.3,3-3.1c0-1.8-1.1-3.1-3-3.1h-3.8v5.5C196.9,204.7,197.2,204.9,197.6,204.9z"/>
		<path d="M224.5,192.4c4.7,0,8.5,3.4,8.5,8.1c0,4.8-3.8,8.1-8.5,8.1c-4.7,0-8.5-3.3-8.5-8.1C216.1,195.8,219.8,192.4,224.5,192.4z
			 M224.5,205.4c2.5,0,4.6-1.9,4.6-4.8c0-2.8-2.1-4.8-4.6-4.8c-2.5,0-4.6,2-4.6,4.8C219.9,203.4,222,205.4,224.5,205.4z"/>
		<path d="M248,192.4c3.4,0,4.5,1.9,4.5,1.9h0.1c0,0,0-0.4,0-0.9v-2.7c0-0.5-0.2-0.7-0.7-0.7h-1.2v-3.3h3.7c1.4,0,2.1,0.6,2.1,2.1
			v15.6c0,0.4,0.2,0.7,0.7,0.7h1.2v3.2h-3.5c-1.4,0-1.9-0.7-1.9-1.6c0-0.3,0-0.6,0-0.6h-0.1c0,0-1.3,2.5-4.8,2.5
			c-4.2,0-6.9-3.3-6.9-8.1C241,195.6,243.9,192.4,248,192.4z M252.6,200.5c0-2.4-1.2-4.8-3.8-4.8c-2.1,0-3.9,1.7-3.9,4.8
			c0,2.9,1.5,4.9,3.8,4.9C250.7,205.4,252.6,203.9,252.6,200.5z"/>
		<path d="M268.7,211.4c1.1,0,2-0.6,2.5-2l0.5-1.2l-5.2-11.6c-0.2-0.5-0.4-0.5-0.8-0.5h-0.5v-3.3h2.5c1.1,0,1.6,0.4,2,1.5l3,7.7
			c0.3,0.8,0.5,2.1,0.5,2.1h0.1c0,0,0.2-1.3,0.5-2.1l2.6-7.7c0.4-1.1,1-1.5,2.1-1.5h2.6v3.3h-0.5c-0.5,0-0.7,0.1-0.9,0.5l-5.6,14
			c-1.1,2.8-3.3,4-5.6,4c-2.4,0-3.9-1.6-3.9-1.6l1.5-2.7C266.5,210.3,267.4,211.4,268.7,211.4z"/>
		<path d="M313.7,186.4c2.8,0,8.2,1.2,8.2,4.8v2.4h-3.6v-1.2c0-1.6-2.6-2.3-4.5-2.3c-3.9,0-6.9,2.8-6.9,7.2c0,4.2,3.1,7.6,7,7.6
			c4.1,0,6.5-2.9,6.5-2.9l2.1,2.9c0,0-3.1,3.7-8.7,3.7c-6.6,0-11.1-4.9-11.1-11.3C302.8,191.1,307.4,186.4,313.7,186.4z"/>
		<path d="M339.6,198.6h0.5v-0.1c0-2.2-0.9-3-2.9-3c-0.7,0-2.1,0.2-2.1,1v0.8h-3.6v-1.6c0-2.9,4.1-3.2,5.7-3.2
			c5.2,0,6.7,2.7,6.7,6.2v5.8c0,0.4,0.2,0.7,0.7,0.7h1.2v3.2h-3.5c-1.4,0-2-0.8-2-1.7c0-0.4,0-0.7,0-0.7h-0.1c0,0-1.2,2.7-4.7,2.7
			c-2.8,0-5.3-1.7-5.3-4.8C330.4,199,337.1,198.6,339.6,198.6z M336.6,205.6c2.1,0,3.5-2.2,3.5-4.1v-0.4h-0.7c-2,0-5.2,0.3-5.2,2.4
			C334.3,204.7,335,205.6,336.6,205.6z"/>
		<path d="M354.9,196.8c0-0.5-0.2-0.7-0.7-0.7h-1.2v-3.3h3.5c1.4,0,2.1,0.6,2.1,1.9v0.9c0,0.6-0.1,1-0.1,1h0.1c0.7-2.2,2.5-4,4.9-4
			c0.3,0,0.7,0.1,0.7,0.1v3.8c0,0-0.4-0.1-0.9-0.1c-1.6,0-3.5,0.9-4.2,3.2c-0.2,0.8-0.3,1.6-0.3,2.5v6.1h-3.8V196.8z"/>
		<path d="M379.2,192.4c4.4,0,6.9,3.2,6.9,7.3c0,0.5-0.1,1.4-0.1,1.4h-10.7c0.3,2.7,2.3,4.2,4.6,4.2c2.5,0,4.3-1.7,4.3-1.7l1.6,2.7
			c0,0-2.4,2.3-6.2,2.3c-5.1,0-8.3-3.7-8.3-8.1C371.4,195.8,374.6,192.4,379.2,192.4z M382.1,198.5c-0.1-1.8-1.3-3.1-2.9-3.1
			c-2,0-3.4,1.2-3.8,3.1H382.1z"/>
		<path d="M410.4,190.1h-2v-3.4h13c1.4,0,2.1,0.6,2.1,2.1v3.3h-3.6v-1.3c0-0.4-0.2-0.7-0.7-0.7h-4.9v5.6h7v3.4h-7v5.1
			c0,0.4,0.2,0.7,0.7,0.7h5c0.4,0,0.7-0.2,0.7-0.7v-1.3h3.6v3.3c0,1.5-0.6,2.1-2.1,2.1h-9.8c-1.5,0-2.1-0.6-2.1-2.1V190.1z"/>
		<path d="M436.4,200.5l-2.5-3.8c-0.3-0.5-0.5-0.5-1.2-0.5h-1.1v-3.3h2.7c1.3,0,1.8,0.3,2.5,1.5l1.5,2.5c0.2,0.4,0.5,1,0.5,1h0.1
			c0,0,0.3-0.6,0.5-1l1.5-2.5c0.7-1.2,1.2-1.5,2.5-1.5h2.7v3.3h-1.1c-0.6,0-0.9,0.1-1.2,0.5l-2.6,3.8l5.1,7.8h-4.3l-2.7-4.3
			c-0.2-0.3-0.4-0.8-0.4-0.8h-0.1c0,0-0.2,0.5-0.5,0.8l-2.7,4.3h-4.3L436.4,200.5z"/>
		<path d="M455.1,196.8c0-0.5-0.2-0.7-0.7-0.7h-1.2v-3.3h3.4c1.4,0,1.9,0.6,1.9,1.5c0,0.4,0,0.6,0,0.6h0.1c0,0,1.3-2.5,4.9-2.5
			c4.2,0,6.9,3.3,6.9,8.1c0,4.9-3,8.1-7.1,8.1c-3.1,0-4.4-2-4.4-2h-0.1c0,0,0.1,0.5,0.1,1.3v6.4h-3.8V196.8z M462.7,205.4
			c2.1,0,3.9-1.7,3.9-4.8c0-2.9-1.6-4.9-3.9-4.9c-2,0-3.9,1.5-3.9,4.9C458.8,203,460.1,205.4,462.7,205.4z"/>
		<path d="M486.3,192.4c4.4,0,6.9,3.2,6.9,7.3c0,0.5-0.1,1.4-0.1,1.4h-10.7c0.3,2.7,2.3,4.2,4.6,4.2c2.5,0,4.3-1.7,4.3-1.7l1.6,2.7
			c0,0-2.4,2.3-6.2,2.3c-5.1,0-8.3-3.7-8.3-8.1C478.4,195.8,481.6,192.4,486.3,192.4z M489.2,198.5c-0.1-1.8-1.3-3.1-2.9-3.1
			c-2,0-3.4,1.2-3.8,3.1H489.2z"/>
		<path d="M502.9,196.8c0-0.5-0.2-0.7-0.7-0.7H501v-3.3h3.5c1.4,0,2.1,0.6,2.1,1.9v0.9c0,0.6-0.1,1-0.1,1h0.1c0.7-2.2,2.5-4,4.9-4
			c0.3,0,0.7,0.1,0.7,0.1v3.8c0,0-0.4-0.1-0.9-0.1c-1.6,0-3.5,0.9-4.2,3.2c-0.2,0.8-0.3,1.6-0.3,2.5v6.1h-3.8V196.8z"/>
		<path d="M521.5,195.9h-2v-3.1h2.1v-4.2h3.8v4.2h3.5v3.1h-3.5v6.2c0,2.5,2,2.9,3.1,2.9c0.4,0,0.7-0.1,0.7-0.1v3.4
			c0,0-0.5,0.1-1.2,0.1c-2.2,0-6.4-0.6-6.4-5.8V195.9z"/>
		<path d="M538.8,203.4c0,0,2,2.3,4.6,2.3c1.2,0,2.1-0.5,2.1-1.5c0-2.2-8.2-2.2-8.2-7.2c0-3.1,2.8-4.5,6-4.5c2.1,0,5.4,0.7,5.4,3.2
			v1.6h-3.4v-0.8c0-0.7-1.1-1.1-1.9-1.1c-1.4,0-2.3,0.5-2.3,1.4c0,2.4,8.2,1.9,8.2,7.1c0,2.9-2.6,4.7-5.9,4.7
			c-4.2,0-6.4-2.8-6.4-2.8L538.8,203.4z"/>
	</g>
	<g>
		<path id="XMLID_3_" class="st0" d="M49.9,21.9c-16.1,11-31.4,24.6-40.5,42.8c-37.8,76,76.4,96.3,136.4,54.1
			c16.5-11.6,30.6-23.6,40.6-42.7c11.8-22.5,10.5-48-8.5-60.6C140.9-9.5,85.6-2,49.9,21.9L49.9,21.9z M113.6,7.1
			C76,14.4,37.8,79.9,44.1,114.7c2.9,16.1,21.4,21.9,39.4,18.7c38-7,73-73.6,69.5-107.4C151.4,10,131.2,3.7,113.6,7.1L113.6,7.1z"/>
		<path id="XMLID_4_" class="st0" d="M262.9,109.3c-0.8,5.8-0.5,6.7,1.3,11.2c2.5,4.3,2,8.9,11.9,13.7c13.4,6.7,28.6,1.4,41-5.6
			c7.5-4.3,12.6-9.9,16.1-11.2l-5,16.9H349c1.6-2.5,5.4-15.4,6.8-19.3c2.4-6.2,5.3-12.3,8.1-18c3.5-6.7,17.4-29.2,26.3-24.1
			c5,4.8-16,47.7-18.1,61.2l20.4,0.1c2.5-5.4,4.6-13.4,6.9-19.4c2.1-5.9,5-13,7.8-18.2c4.2-7.4,16.5-28.8,27.3-23.5
			c2.5,5.2-3.7,16.4-5.9,22.4c-6.5,18.1-18.3,40.9,4.5,40.1c14.1-0.5,14.8-8.8,21.4-11c3.2,8.8,11.2,13.6,24.3,11.6
			c12.6-1.8,20.1-11.9,23.7-14.5c1.6-3.2,4-8.1,4.4-12.8c-2.5,2.2-11.1,16.9-21,16.7c-31.1-1,25-84.5,31.6-51.5
			c3.1-0.7,3.6-3.7,3.2-6.5c-12.2-18.3-44.3,4.7-50.8,11.9c-5.4,6-11,13.6-14.3,22.8c-2,5.5-1.7,11.4-3,15.4
			c-0.9,2.9-6.1,8.6-10.7,6.8c-2-8.5,5-20.6,8.1-28.7c2.4-6.5,10-22.2,4.5-30.2c-6.1-8.8-20.3-5.1-28,0.7c-4.2,3.1-6.5,6-9.7,9.7
			c-2.1,2.4-6.6,9.2-8.8,10c1-4.8,6.8-14.3,2.4-21c-3.9-5.8-13.1-5.9-20.6-2.4c-7.1,3.2-16.9,13.7-21.3,19.7
			c-1.7,2.4-4.5,6.5-6.1,7.8c-1.2-1.8-1-0.3,1.4-6.8l7.8-22.5c-6.3,0.5-15.4,2.8-27,3.3c-17.1,0.9-2.4,4.5,1.5,7
			c0.6,6.3-4.3,20.5-6.6,26.6c-4.8,12.5-23.9,26.3-38.7,28.4c-11.3,1.6-16.6-8.3-13.9-19.8c2.1-1.3,44.3-11.5,43.8-34.5
			c-0.3-21.2-41.6-18.8-61.3,17.2C265.5,96.5,265.3,101.1,262.9,109.3L262.9,109.3z M288,101.2c12.3-0.7,30.1-18.7,25.7-34.5
			c-0.8-2.5-3.7-2.5-6.1-2.2c-6.3,0.7-9.8,7.1-12.7,12.5C292.7,81.3,287.8,95.3,288,101.2L288,101.2z"/>
		<path id="XMLID_43_" class="st0" d="M217.6,100.6c2.8-2.2,5.5-4.2,8.8-6.6c2.8-2.2,6.3-5.6,9.1-6.9c3.6-3.8,14.2-12.7,22.6-17.4
			c1.6-0.8,9.9-3.3,9.9-3.3c0.3-0.3,0.3-1,0.6-2.7c-2.1-1.5-5.6-1.2-8.6-1.2c-2.2,0-25.9-0.2-25.8,0.2l0.8,3.7
			c0.1,0.3,1-0.2,3.1,0.1c12,2.4-2.9,12.9-7.5,17.3c-2.7,2.4-12.8,10.7-15.9,11.6c0-8.2,19-63.1,19.8-72.7l-34,4.7l-0.1,2.7
			c3.6,2.1,6.2-0.3,10.3,3.8c2.9,5.5-26.1,89.5-27,100.3c24.2,1.3,19.3,1.4,22.7-10.7C211.6,105.7,208.9,106.3,217.6,100.6
			L217.6,100.6z"/>
		<path id="XMLID_44_" class="st1" d="M502.3,129.8c2.9,8.5,15.3,10,22.8,6.7c7.6-3.3,20.1-13.4,22.2-19.7
			c-6.2-10.7-11.8,7.8-20.6,7.3c0-13.6,21.4-58.2,20.3-64.9l-22.8,1C519.8,66.4,499.8,122.5,502.3,129.8L502.3,129.8z"/>
		<path id="XMLID_45_" class="st1" d="M217.6,100.6c0.3,6.8,3.1,14.4,4.7,19.8c2.2,7.3,3.7,12.1,10.3,15.2
			c16.7,8.1,28.7-13.3,31.6-15.2c-1.7-4.5-2.1-5.4-1.3-11.2c-0.1,0.1-0.3,0.1-0.5,0.5c0,0.3-0.2,0.5-0.3,0.7
			c-1.7,2.8-2.3,5.1-4.8,8.6c-2.7,3.5-5.8,5.8-10.8,5c-3.9-2.3-10-31.2-11-36.9c-2.8,1.3-6.3,4.7-9.1,6.9
			C223.1,96.5,220.3,98.4,217.6,100.6L217.6,100.6z"/>
	</g>
</g>
</svg>
